<svg width="90" viewBox="0 0 740 202" fill="none" xmlns="http://www.w3.org/2000/svg">
                <path
                    d="M0 202L32.7045 197.587V89.7233L67.3615 193.665L103.483 188.762V1.96117H71.7546V114.728L30.752 1.96117H1.46438L0 202Z"
                    fill="#E50914" />
                <path
                    d="M219.657 179.937L132.77 184.84V1.96117H219.657V33.8301H164.499V74.5243H205.989V106.393H164.499V152.481L219.657 149.539V179.937Z"
                    fill="#E50914" />
                <path
                    d="M239.67 1.96117V31.8689L271.398 32.3592L271.887 177.485H303.127V32.3592H335.831V0.980583L239.182 1.96117H239.67Z"
                    fill="#E50914" />
                <path d="M354.38 0H442.243V31.3786H385.62V70.6019H428.575V102.961H385.62V174.544H370H354.38V0Z"
                    fill="#E50914" />
                <path d="M460.792 0V177.485L545.726 181.408V149.049L493.008 145.617V0.490291L460.792 0Z"
                    fill="#E50914" />
                <path d="M572.084 0V183.369L603.325 185.33V0H572.084Z" fill="#E50914" />
                <path
                    d="M629.683 0.490291L665.805 94.1359L625.29 186.801L659.459 191.214L682.401 137.772L704.367 195.136L740 201.019L699.974 96.0971L740 0.490291H704.855L683.865 53.4417L663.852 0L629.683 0.490291Z"
                    fill="#E50914" />
            </svg>